<?xml version="1.0" encoding="utf-8"?>
<!-- Generator: Adobe Illustrator 21.0.0, SVG Export Plug-In . SVG Version: 6.00 Build 0)  -->
<svg version="1.1" id="Layer_1" xmlns="http://www.w3.org/2000/svg" xmlns:xlink="http://www.w3.org/1999/xlink" x="0px" y="0px"
	 viewBox="0 0 19 18" style="enable-background:new 0 0 19 18;" xml:space="preserve">
<style type="text/css">
	.st0{fill:#242424;}
</style>
<path class="st0" d="M17.8,8.9c0.3-0.1,0.5-0.3,0.6-0.5c0.1-0.2,0.2-0.5,0.1-0.8L17.7,5c-0.2-0.5-0.7-0.8-1.3-0.7L15,4.7
	c-0.1-0.1-0.2-0.2-0.3-0.3l0.7-1.1c0.1-0.2,0.2-0.5,0.1-0.8S15.3,2,15.1,1.9l-2.4-1.4c-0.2-0.1-0.5-0.2-0.8-0.1s-0.5,0.2-0.6,0.5
	l-0.7,1.2c-0.1,0-0.3,0-0.4,0L9.8,0.8C9.7,0.2,9.1-0.1,8.6,0L5.9,0.7C5.6,0.7,5.4,0.9,5.3,1.1C5.1,1.4,5.1,1.6,5.1,1.9l0.3,1.4
	C5.4,3.4,5.3,3.4,5.2,3.5L4,2.8C3.8,2.7,3.5,2.6,3.3,2.7C3,2.7,2.8,2.9,2.6,3.1L1.1,5.5C1,5.7,0.9,6,1,6.2s0.2,0.5,0.4,0.6l1.2,0.8
	c0,0.1,0,0.2-0.1,0.3c0,0,0,0,0,0.1L1.3,8.3C1,8.4,0.8,8.5,0.6,8.7C0.5,9,0.4,9.2,0.5,9.5L1,12.2c0,0.3,0.2,0.5,0.4,0.6
	C1.6,13,1.9,13.1,2.2,13l1.4-0.3c0.1,0.1,0.1,0.2,0.2,0.3L3,14.2c-0.2,0.2-0.2,0.5-0.2,0.8c0,0.3,0.2,0.5,0.4,0.7l2.3,1.6
	c0.2,0.2,0.5,0.2,0.8,0.2c0.3,0,0.5-0.2,0.7-0.4l0.8-1.2C8,15.9,8.3,16,8.5,16c0.4,0.1,0.8,0.1,1.1,0.1l0.4,1.2
	c0.1,0.3,0.3,0.5,0.5,0.6C10.7,18,10.9,18,11,18c0.1,0,0.2,0,0.3-0.1L14,17c0.3-0.1,0.5-0.3,0.6-0.5s0.1-0.5,0-0.8l-0.5-1.4
	c0.1-0.1,0.2-0.2,0.3-0.3l1.2,0.6c0.5,0.3,1.1,0.1,1.4-0.4l1.3-2.5c0.1-0.2,0.1-0.5,0.1-0.8c-0.1-0.3-0.3-0.5-0.5-0.6l-1.3-0.7
	c0-0.1,0-0.3,0-0.4L17.8,8.9z M16,8.4c-0.2,0-0.4,0.2-0.4,0.5c0,0.3,0,0.7-0.1,1c0,0.1,0,0.3,0.1,0.4c0.1,0.1,0.2,0.2,0.3,0.2
	c0,0,0,0,0,0l1.4,0.7c0,0,0,0,0,0c0,0,0,0,0,0.1l-1.3,2.5c0,0-0.1,0-0.1,0l-1.4-0.7l0,0c-0.2-0.1-0.5-0.1-0.6,0.1
	c-0.2,0.2-0.5,0.5-0.7,0.7c-0.1,0.1-0.2,0.2-0.2,0.3c0,0.1,0,0.3,0.1,0.4c0,0,0,0,0,0l0.5,1.5c0,0,0,0.1,0,0.1L11.1,17
	c0,0,0,0-0.1,0s0,0,0,0l-0.5-1.5v0c-0.1-0.2-0.3-0.4-0.5-0.4c-0.4,0-0.9,0-1.3,0c-0.3,0-0.6-0.1-0.9-0.2c-0.1,0-0.3,0-0.4,0
	c-0.1,0.1-0.2,0.2-0.2,0.3c0,0,0,0,0,0l-1,1.3c0,0-0.1,0-0.1,0l-2.3-1.6c0,0,0,0,0,0c0,0,0,0,0,0l0.9-1.3c0,0,0,0,0,0l-0.4-0.3
	l0.4,0.3c0.2-0.2,0.2-0.4,0-0.6c-0.2-0.3-0.4-0.5-0.6-0.8c-0.1-0.1-0.2-0.2-0.3-0.2c-0.1,0-0.3,0-0.4,0c0,0,0,0,0,0L2,12.1
	c0,0,0,0,0,0c0,0,0,0,0,0L1.4,9.3c0,0,0,0,0,0c0,0,0,0,0,0L3,9h0c0.2,0,0.4-0.2,0.4-0.4c0-0.1,0-0.2,0-0.4c0-0.2,0.1-0.4,0.1-0.6
	c0-0.1,0-0.3-0.1-0.4C3.5,7.1,3.4,7,3.3,7c0,0,0,0,0,0L1.9,6.1c0,0,0,0,0,0s0,0,0,0l1.5-2.4c0,0,0.1,0,0.1,0l1.3,0.9l0,0
	c0.2,0.2,0.4,0.1,0.6,0C5.7,4.3,6,4.1,6.3,3.9c0.1-0.1,0.2-0.2,0.2-0.3s0-0.3-0.1-0.4c0,0,0,0,0,0L6,1.7c0,0,0,0,0,0
	c0-0.1,0-0.1,0.1-0.1l2.7-0.7c0,0,0,0,0.1,0c0,0,0,0,0,0.1l0.4,1.5v0c0,0.2,0.2,0.4,0.5,0.4c0.2,0,0.5,0,0.7,0.1
	c0.1,0,0.2,0,0.3,0.1c0.1,0,0.3,0,0.4-0.1c0.1-0.1,0.2-0.2,0.2-0.3c0,0,0,0,0,0l0.8-1.4c0,0,0,0,0,0c0,0,0,0,0.1,0l2.4,1.4
	c0,0,0,0,0,0c0,0,0,0,0,0.1l-0.8,1.4l0,0c-0.1,0.2-0.1,0.5,0,0.6c0.2,0.2,0.4,0.5,0.6,0.8c0.1,0.1,0.2,0.2,0.3,0.2
	c0.1,0,0.3,0,0.4-0.1c0,0,0,0,0,0l1.5-0.5c0,0,0.1,0,0.1,0l0.8,2.7c0,0,0,0.1,0,0.1L16,8.4z M10.2,5C8,4.7,6,6.2,5.7,8.4
	c-0.3,2.2,1.2,4.2,3.3,4.5c0.2,0,0.4,0,0.6,0c0.8,0,1.7-0.3,2.4-0.8c0.8-0.6,1.4-1.5,1.5-2.6C13.8,7.4,12.4,5.4,10.2,5z M12.6,9.4
	c-0.1,0.8-0.5,1.5-1.2,2c-0.6,0.5-1.4,0.7-2.2,0.6c-1.6-0.2-2.8-1.8-2.5-3.4c0.2-1.5,1.5-2.6,3-2.6c0.1,0,0.3,0,0.4,0
	C11.7,6.2,12.8,7.7,12.6,9.4z"/>
</svg>
