<?xml version="1.0" encoding="utf-8"?>
<!-- Generator: Adobe Illustrator 21.0.0, SVG Export Plug-In . SVG Version: 6.00 Build 0)  -->
<svg version="1.1" id="Layer_1" xmlns="http://www.w3.org/2000/svg" xmlns:xlink="http://www.w3.org/1999/xlink" x="0px" y="0px"
	 viewBox="0 0 10 12" style="enable-background:new 0 0 10 12;" xml:space="preserve">
<style type="text/css">
	.st0{fill:#020000;}
</style>
<path class="st0" d="M9,10.2V2.4h0.9V1.6H7.4V1.2C7.4,0.5,6.9,0,6.2,0H3.8C3.1,0,2.6,0.5,2.6,1.2v0.4H0.1v0.8H1v7.9
	c0,1,0.8,1.7,1.7,1.7h4.5C8.2,12,9,11.2,9,10.2z M3.4,1.2c0-0.2,0.2-0.4,0.4-0.4h2.4c0.2,0,0.4,0.2,0.4,0.4v0.4H3.4V1.2z M4.6,3.6
	h0.8v6.2H4.6V3.6z M6.1,3.6h0.8v6.2H6.1V3.6z M3.1,3.6h0.8v6.2H3.1V3.6z"/>
</svg>
