<?xml version="1.0" encoding="utf-8"?>
<!-- Generator: Adobe Illustrator 21.0.0, SVG Export Plug-In . SVG Version: 6.00 Build 0)  -->
<svg version="1.1" id="Layer_1" xmlns="http://www.w3.org/2000/svg" xmlns:xlink="http://www.w3.org/1999/xlink" x="0px" y="0px"
	 viewBox="0 0 12 12" style="enable-background:new 0 0 12 12;" xml:space="preserve">
<path d="M11.5,1.3l-0.8-0.8c-0.6-0.6-1.7-0.6-2.4,0L1.2,7.7C1.1,7.7,1.1,7.8,1.1,7.8l-1,3.7c-0.1,0.1,0,0.3,0.1,0.3
	C0.2,11.9,0.3,12,0.4,12c0.1,0,0.1,0,0.1,0l3.7-1c0.1,0,0.1-0.1,0.2-0.1l7.1-7.1C11.8,3.4,12,3,12,2.5S11.8,1.6,11.5,1.3z M11,3.1
	L10.2,4L8,1.8L8.8,1c0.3-0.3,1-0.3,1.3,0L11,1.8c0.2,0.2,0.3,0.4,0.3,0.6C11.3,2.7,11.1,3,11,3.1z"/>
</svg>
