<?xml version="1.0" encoding="utf-8"?>
<!-- Generator: Adobe Illustrator 21.0.0, SVG Export Plug-In . SVG Version: 6.00 Build 0)  -->
<svg version="1.1" id="Layer_1" xmlns="http://www.w3.org/2000/svg" xmlns:xlink="http://www.w3.org/1999/xlink" x="0px" y="0px"
	 viewBox="0 0 22 18" style="enable-background:new 0 0 22 18;" xml:space="preserve">
<path d="M19.6,0c-1.3,0-2.2,1-2.2,2.2c0,0.6,0.3,1.2,0.7,1.6l-2.9,5.8c-0.2-0.1-0.4-0.1-0.5-0.1c-0.6,0-1.1,0.2-1.6,0.6L9.9,8.6
	c0-0.2,0.1-0.3,0.1-0.5c0-1.2-1-2.2-2.2-2.2c-1.3,0-2.3,1-2.3,2.2c0,0.4,0.1,0.8,0.4,1.2l-2.8,4.4c-0.2-0.1-0.4-0.1-0.7-0.1
	c-1.3,0-2.2,1-2.2,2.2c0,1.2,1,2.2,2.2,2.2c1.3,0,2.2-1,2.2-2.2c0-0.5-0.2-1-0.5-1.4l2.7-4.3c0.3,0.1,0.5,0.2,0.9,0.2
	c0.6,0,1.1-0.2,1.5-0.6l3.1,1.6c0,0.1-0.1,0.3-0.1,0.4c0,1.2,1,2.2,2.2,2.2s2.2-1,2.2-2.2c0-0.5-0.2-1.1-0.5-1.4l3-5.9
	c0.1,0,0.2,0,0.3,0c1.3,0,2.2-1,2.2-2.2S20.9,0,19.6,0z M2.4,16.7c-0.5,0-0.9-0.4-0.9-0.9s0.4-0.9,0.9-0.9s0.9,0.4,0.9,0.9
	S3,16.7,2.4,16.7z M7.7,9C7.2,9,6.8,8.6,6.8,8.1c0-0.5,0.4-0.9,0.9-0.9c0.5,0,0.9,0.4,0.9,0.9C8.6,8.6,8.3,9,7.7,9z M14.6,12.6
	c-0.5,0-0.9-0.4-0.9-0.9c0-0.5,0.4-0.9,0.9-0.9c0.5,0,0.9,0.4,0.9,0.9C15.5,12.2,15.1,12.6,14.6,12.6z M19.6,3.1
	c-0.5,0-0.9-0.4-0.9-0.9s0.4-0.9,0.9-0.9s0.9,0.4,0.9,0.9S20.1,3.1,19.6,3.1z"/>
</svg>
