<?xml version="1.0" encoding="utf-8"?>
<!-- Generator: Adobe Illustrator 21.0.0, SVG Export Plug-In . SVG Version: 6.00 Build 0)  -->
<svg version="1.1" id="Layer_1" xmlns="http://www.w3.org/2000/svg" xmlns:xlink="http://www.w3.org/1999/xlink" x="0px" y="0px"
	 viewBox="0 0 22 18" style="enable-background:new 0 0 22 18;" xml:space="preserve">
<path d="M18,8v8.6h-3.9v-4.3c0-0.4-0.3-0.6-0.6-0.6H8.7c-0.4,0-0.6,0.3-0.6,0.6v4.3H4.2V8l6.9-6.4L18,8z M2.8,9.2v8.1
	c0,0.4,0.3,0.7,0.6,0.7h5.1c0.4,0,0.7-0.3,0.7-0.7V13h3.4v4.3c0,0.4,0.4,0.7,0.7,0.7h5.1c0.4,0,0.7-0.3,0.7-0.7V9.4l1.2,1.2
	c0.6,0.6,1.6-0.4,1-1l-10-9.3c-0.2-0.3-0.6-0.3-1,0L0.5,9.5c-0.6,0.6,0.3,1.7,1,1L2.8,9.2z"/>
</svg>
