<?xml version="1.0" encoding="utf-8"?>
<!-- Generator: Adobe Illustrator 21.0.0, SVG Export Plug-In . SVG Version: 6.00 Build 0)  -->
<svg version="1.1" id="Layer_1" xmlns="http://www.w3.org/2000/svg" xmlns:xlink="http://www.w3.org/1999/xlink" x="0px" y="0px"
	 viewBox="0 0 19 18" style="enable-background:new 0 0 19 18;" xml:space="preserve">
<path d="M0.3,9c-0.4-0.4-0.4-0.9,0-1.2c0.4-0.4,0.9-0.4,1.2,0l1.8,1.8l3.4-3c0.4-0.3,0.9-0.3,1.2,0.1C8.3,7,8.3,7.5,7.9,7.8l-4,3.5
	c-0.4,0.3-0.9,0.3-1.2-0.1L0.3,9z M18.1,8.1h-8C9.7,8.1,9.3,8.5,9.3,9c0,0.5,0.4,0.9,0.9,0.9h8C18.6,9.8,19,9.4,19,9
	C18.9,8.5,18.6,8.1,18.1,8.1z M2.7,17.7c0.3,0.4,0.8,0.4,1.2,0.1l4-3.5c0.4-0.3,0.4-0.9,0.1-1.2c-0.3-0.4-0.9-0.4-1.2-0.1l-3.4,3
	l-1.8-1.8c-0.4-0.4-0.9-0.4-1.2,0s-0.4,0.9,0,1.2L2.7,17.7z M18.1,14.5h-8c-0.5,0-0.9,0.4-0.9,0.9s0.4,0.9,0.9,0.9h8
	c0.5,0,0.9-0.4,0.9-0.9S18.6,14.5,18.1,14.5z M2.7,5C3,5.3,3.5,5.3,3.9,5l4-3.5c0.4-0.3,0.4-0.9,0.1-1.2C7.6-0.1,7.1-0.1,6.7,0.2
	l-3.4,3L1.5,1.4C1.1,1,0.6,1,0.3,1.4s-0.4,0.9,0,1.2L2.7,5z M18.1,1.7h-8c-0.5,0-0.9,0.4-0.9,0.9c0,0.5,0.4,0.9,0.9,0.9h8
	c0.5,0,0.9-0.4,0.9-0.9C19,2.1,18.6,1.7,18.1,1.7z"/>
</svg>
