<svg xmlns="http://www.w3.org/2000/svg" xmlns:xlink="http://www.w3.org/1999/xlink" viewBox="0 0 1080 1080"><defs><style>.cls-1{fill:url(#linear-gradient);}.cls-2{fill:#fff;}</style><linearGradient id="linear-gradient" x1="158.16" y1="158.16" x2="921.84" y2="921.84" gradientUnits="userSpaceOnUse"><stop offset="0" stop-color="#fdb400"/><stop offset="1" stop-color="#ff4c00"/></linearGradient></defs><title>Asset 1</title><g id="Layer_2" data-name="Layer 2"><g id="Layer_1-2" data-name="Layer 1"><circle class="cls-1" cx="540" cy="540" r="540"/><path class="cls-2" d="M624,538.49a188.54,188.54,0,0,0,47.25-34.33,19.18,19.18,0,0,0,1.38-1.54,187.83,187.83,0,0,0,53.94-131.85V216.15H349.69V370.77c0,74.2,43.11,138.51,105.59,169.24a189.45,189.45,0,0,0-51,36.69q-.85.72-1.65,1.54a187.38,187.38,0,0,0-51.43,106.9l0,.19q-.26,2.09-.48,4.19c0,.22,0,.43-.07.65-.13,1.26-.24,2.52-.34,3.78,0,.34-.06.68-.09,1-.09,1.17-.16,2.35-.22,3.52,0,.42-.05.83-.07,1.25-.06,1.17-.1,2.34-.13,3.51,0,.42,0,.83,0,1.25q-.06,2.37-.06,4.75V863.85H726.61V709.23c0-74.18-43.08-138.48-105.54-169.21.9-.44,1.79-.93,2.68-1.38Zm64.1-283.88V370.77a149.27,149.27,0,0,1-32,92.53L419.76,254.61Zm-300,454.62c0-1.89,0-3.77.12-5.65,0-.4,0-.79,0-1.19q.12-2.66.33-5.3c0-.46.08-.91.12-1.37q.2-2.22.46-4.42c.07-.58.14-1.16.21-1.73.18-1.39.39-2.76.61-4.14.13-.78.25-1.56.39-2.34.21-1.18.43-2.35.67-3.51s.5-2.43.78-3.63c.09-.41.19-.82.29-1.23a149.55,149.55,0,0,1,28-58l98.76,87.19v121.5H388.15ZM557.38,825.39V737.84l99.16,87.55ZM688.15,709.23V802L557.38,686.54l-38.46-34-71.25-62.91A149.22,149.22,0,0,1,538,559.23h.3C620.93,559.3,688.15,626.56,688.15,709.23Zm-95-198.9-.07,0q-4.75,1.87-9.65,3.42l-1.66.51c-.86.26-1.71.52-2.57.77q-1.89.54-3.8,1l-2.15.53-2.64.61-2,.43q-2.1.44-4.22.81l-1.76.29q-1.57.26-3.15.48l-1.76.25q-2.23.29-4.48.52l-1.43.13q-1.79.16-3.59.28l-1.77.11-1.68.08-2.11.08-1.79,0-2.07,0H537l-2.06,0-1.82-.05-2-.08-1.92-.1-1.84-.12-2.1-.17-1.61-.14-2.38-.25-1.28-.15-2.78-.37-.8-.11q-1.68-.25-3.36-.53l-.17,0A148.4,148.4,0,0,1,436,480a152.63,152.63,0,0,1-47.81-110.69V278L628.64,490.32A150,150,0,0,1,593.13,510.34Z"/></g></g></svg>